<?xml version="1.0" encoding="UTF-8" standalone="no"?>
<!DOCTYPE svg PUBLIC "-//W3C//DTD SVG 1.1//EN" "http://www.w3.org/Graphics/SVG/1.1/DTD/svg11.dtd">
<svg width="100%" height="100%" viewBox="0 0 3673 617" version="1.1" xmlns="http://www.w3.org/2000/svg" xmlns:xlink="http://www.w3.org/1999/xlink" xml:space="preserve" xmlns:serif="http://www.serif.com/" style="fill-rule:evenodd;clip-rule:evenodd;stroke-linejoin:round;stroke-miterlimit:2;">
    <g transform="matrix(5.55556,0,0,5.55556,0,0)">
        <g transform="matrix(1.33333,0,0,1.33333,116,0)">
            <g>
                <g transform="matrix(1,0,0,1,-27.652,-0.0724999)">
                    <g transform="matrix(1,0,0,1,-3722.95,-4377.77)">
                        <g transform="matrix(0.891352,0,0,0.891352,479.845,498.5)">
                            <rect x="3664.3" y="4352.53" width="92.755" height="92.755" style="fill:rgb(251,188,4);"/>
                        </g>
                        <g transform="matrix(3.12599,0,0,3.12599,3762.37,4394.95)">
                            <path d="M8,1.5C5.637,1.5 4,3.19 4,5.25C4,6.234 4.424,6.875 4.984,7.554L5.198,7.807C5.421,8.071 5.668,8.363 5.871,8.655C6.155,9.066 6.408,9.551 6.492,10.145C6.495,10.171 6.496,10.197 6.496,10.222C6.496,10.634 6.157,10.972 5.746,10.972C5.385,10.972 5.072,10.711 5.008,10.356C4.968,10.074 4.845,9.809 4.638,9.509C4.469,9.273 4.288,9.046 4.096,8.829C4.012,8.729 3.923,8.624 3.828,8.509C3.201,7.75 2.5,6.766 2.5,5.25C2.5,2.31 4.863,0 8,0C11.137,0 13.5,2.31 13.5,5.25C13.5,6.766 12.799,7.75 12.172,8.509C12.077,8.624 11.988,8.729 11.904,8.828C11.697,9.073 11.521,9.281 11.363,9.509C11.155,9.809 11.033,10.074 10.993,10.356C10.94,10.724 10.622,11 10.251,11C9.839,11 9.5,10.661 9.5,10.25C9.5,10.215 9.503,10.179 9.508,10.144C9.592,9.551 9.845,9.066 10.129,8.655C10.332,8.363 10.579,8.071 10.802,7.807C10.877,7.719 10.949,7.634 11.015,7.554C11.576,6.875 12,6.234 12,5.25C12,3.19 10.363,1.5 8,1.5ZM6,15.25C6,14.839 6.339,14.5 6.75,14.5L9.25,14.5C9.661,14.5 10,14.839 10,15.25C10,15.661 9.661,16 9.25,16L6.75,16C6.339,16 6,15.661 6,15.25ZM5.75,12C5.339,12 5,12.339 5,12.75C5,13.161 5.339,13.5 5.75,13.5L10.25,13.5C10.661,13.5 11,13.161 11,12.75C11,12.339 10.661,12 10.25,12L5.75,12Z" style="fill:white;"/>
                        </g>
                    </g>
                    <g transform="matrix(1,0,0,1,-59.6006,0.386564)">
                        <g transform="matrix(3.04701,0,0,3.18009,16.8486,17.3387)">
                            <path d="M10.5,5C10.5,6.371 9.371,7.5 8,7.5C6.629,7.5 5.5,6.371 5.5,5C5.5,3.629 6.629,2.5 8,2.5C9.371,2.5 10.5,3.629 10.5,5ZM10.561,8.073C11.472,7.313 12,6.187 12,5.001C12,2.806 10.194,1.001 7.999,1.001C5.805,1.001 3.999,2.806 3.999,5.001C3.999,6.187 4.527,7.313 5.438,8.073C3.435,9.02 2.113,11.002 2.007,13.215L2.007,13.233C2.007,13.645 2.345,13.983 2.757,13.983C3.149,13.983 3.478,13.676 3.505,13.285C3.618,10.899 5.611,8.997 8,8.997C10.389,8.997 12.382,10.899 12.495,13.285C12.505,13.689 12.84,14.017 13.245,14.017C13.656,14.017 13.995,13.678 13.995,13.267C13.995,13.249 13.994,13.232 13.993,13.215C13.887,11.002 12.564,9.02 10.561,8.073Z" style="fill:rgb(0,118,239);"/>
                        </g>
                        <g transform="matrix(1.08619,0,0,1.67876,-3909.4,-7240.26)">
                            <rect x="3599.35" y="4355.08" width="76.117" height="7.036" style="fill:rgb(255,51,0);"/>
                        </g>
                        <g transform="matrix(0.15517,0,0,11.7513,-558.424,-51177.9)">
                            <rect x="3599.35" y="4355.08" width="76.117" height="7.036" style="fill:rgb(251,188,4);"/>
                        </g>
                        <g transform="matrix(1.08619,0,0,1.67876,-3909.48,-7311.14)">
                            <rect x="3599.35" y="4355.08" width="76.117" height="7.036" style="fill:rgb(8,118,235);"/>
                        </g>
                        <g transform="matrix(0.15517,0,0,11.7513,-487.643,-51178)">
                            <rect x="3599.35" y="4355.08" width="76.117" height="7.036" style="fill:rgb(0,185,90);"/>
                        </g>
                    </g>
                    <g transform="matrix(1,0,0,1,-3652.33,-4355.71)">
                        <g transform="matrix(2.90981,0,0,2.91665,3776.86,4375.35)">
                            <path d="M7.429,1.525C7.809,1.492 8.191,1.492 8.571,1.525C8.607,1.528 8.679,1.561 8.708,1.671L8.997,2.776C9.144,3.336 9.547,3.743 9.994,3.965C10.168,4.051 10.335,4.148 10.495,4.255C10.912,4.533 11.465,4.678 12.025,4.525L13.127,4.222C13.237,4.192 13.302,4.238 13.322,4.268C13.541,4.578 13.732,4.909 13.895,5.257C13.909,5.288 13.917,5.367 13.836,5.447L13.021,6.253C12.61,6.659 12.459,7.21 12.491,7.709C12.503,7.903 12.503,8.097 12.491,8.291C12.459,8.79 12.61,9.341 13.021,9.747L13.836,10.553C13.916,10.633 13.909,10.712 13.895,10.743C13.733,11.089 13.542,11.42 13.322,11.733C13.302,11.762 13.236,11.807 13.127,11.778L12.024,11.475C11.465,11.322 10.912,11.467 10.495,11.745C10.335,11.852 10.168,11.949 9.995,12.035C9.546,12.257 9.144,12.663 8.997,13.224L8.708,14.329C8.679,14.439 8.607,14.472 8.571,14.475C8.191,14.508 7.809,14.508 7.429,14.475C7.393,14.472 7.321,14.438 7.292,14.329L7.003,13.224C6.856,12.664 6.453,12.257 6.006,12.035C5.833,11.949 5.666,11.852 5.505,11.745C5.088,11.467 4.535,11.322 3.975,11.475L2.873,11.778C2.763,11.808 2.698,11.762 2.678,11.732C2.458,11.42 2.267,11.089 2.105,10.743C2.091,10.712 2.083,10.633 2.164,10.553L2.979,9.747C3.39,9.341 3.541,8.79 3.509,8.291C3.497,8.097 3.497,7.903 3.509,7.709C3.541,7.21 3.39,6.659 2.979,6.253L2.164,5.447C2.084,5.367 2.091,5.288 2.105,5.257C2.266,4.911 2.458,4.579 2.678,4.267C2.698,4.238 2.764,4.192 2.873,4.222L3.976,4.525C4.535,4.678 5.088,4.533 5.505,4.255C5.665,4.148 5.832,4.051 6.005,3.965C6.454,3.743 6.856,3.337 7.003,2.776L7.292,1.671C7.321,1.561 7.393,1.528 7.429,1.525ZM8,0C7.764,0 7.53,0.01 7.299,0.03C6.556,0.095 6.009,0.645 5.841,1.291L5.551,2.397C5.534,2.463 5.473,2.555 5.34,2.621C5.109,2.735 4.886,2.864 4.672,3.007C4.549,3.089 4.439,3.097 4.372,3.078L3.27,2.776C2.626,2.599 1.878,2.796 1.45,3.406C1.18,3.79 0.944,4.197 0.746,4.623C0.431,5.298 0.635,6.045 1.109,6.514L1.924,7.32C1.974,7.368 2.022,7.467 2.012,7.614C1.996,7.871 1.996,8.129 2.012,8.386C2.022,8.533 1.974,8.632 1.924,8.68L1.109,9.486C0.635,9.955 0.431,10.702 0.746,11.377C0.946,11.805 1.182,12.212 1.45,12.595C1.878,13.204 2.626,13.401 3.27,13.225L4.373,12.922C4.439,12.903 4.549,12.911 4.672,12.993C4.885,13.136 5.108,13.265 5.34,13.379C5.473,13.445 5.534,13.537 5.552,13.603L5.841,14.709C6.01,15.355 6.556,15.905 7.299,15.969C7.765,16.01 8.235,16.01 8.701,15.969C9.444,15.905 9.991,15.355 10.159,14.709L10.449,13.603C10.466,13.537 10.527,13.445 10.66,13.379C10.891,13.265 11.114,13.136 11.328,12.993C11.451,12.911 11.561,12.903 11.628,12.922L12.73,13.224C13.374,13.401 14.122,13.204 14.55,12.594C14.818,12.212 15.055,11.805 15.254,11.377C15.569,10.702 15.365,9.955 14.89,9.486L14.076,8.68C14.026,8.632 13.978,8.533 13.988,8.386C14.004,8.129 14.004,7.871 13.988,7.614C13.978,7.467 14.027,7.368 14.076,7.32L14.89,6.514C15.365,6.045 15.569,5.298 15.254,4.623C15.056,4.197 14.82,3.79 14.55,3.405C14.122,2.796 13.374,2.599 12.73,2.775L11.627,3.078C11.561,3.097 11.451,3.089 11.328,3.007C11.114,2.864 10.891,2.735 10.66,2.621C10.527,2.555 10.466,2.463 10.448,2.397L10.16,1.29C9.99,0.645 9.444,0.095 8.701,0.031C8.468,0.011 8.234,0 8,-0ZM9.5,8C9.5,8.823 8.823,9.5 8,9.5C7.177,9.5 6.5,8.823 6.5,8C6.5,7.177 7.177,6.5 8,6.5C8.823,6.5 9.5,7.177 9.5,8ZM11,8C11,9.646 9.646,11 8,11C6.354,11 5,9.646 5,8C5,6.354 6.354,5 8,5C9.646,5 11,6.354 11,8Z" style="fill:white;"/>
                        </g>
                        <g transform="matrix(1.06977,0,0,1.06977,3565.38,4353.3)">
                            <circle cx="218.691" cy="41.117" r="38.643" style="fill:rgb(0,129,255);"/>
                        </g>
                    </g>
                    <g>
                        <g transform="matrix(1.33389,0,0,1.57276,-157.061,-26.1488)">
                            <rect x="258.948" y="16.767" width="61.982" height="52.568" style="fill:rgb(255,47,133);"/>
                        </g>
                        <g transform="matrix(1,0,0,1,-60.9012,0.177197)">
                            <rect x="255.669" y="6.276" width="71.007" height="71.007" style="fill:rgb(255,83,153);"/>
                        </g>
                        <g transform="matrix(1,0,0,1,-59.6006,0.386564)">
                            <rect x="254.617" y="5.654" width="40.9" height="40.9" style="fill:rgb(255,108,168);"/>
                        </g>
                        <g transform="matrix(1,0,0,1,-30.1307,31.6798)">
                            <rect x="254.617" y="5.654" width="40.9" height="40.9" style="fill:rgb(255,108,168);"/>
                        </g>
                        <g transform="matrix(2.54741,0,0,2.58822,211.173,23.4591)">
                            <path d="M4,4L4,6L3.75,6C2.79,6 2,6.79 2,7.75L2,13.25C2,14.216 2.784,15 3.75,15L12.25,15C13.21,15 14,14.21 14,13.25L14,7.75C14,6.79 13.21,6 12.25,6L12,6L12,4C12,1.806 10.194,0 8,0C5.806,-0 4,1.806 4,4ZM10.5,6L10.5,4C10.5,2.629 9.371,1.5 8,1.5C6.629,1.5 5.5,2.629 5.5,4L5.5,6L10.5,6ZM3.75,7.5L12.25,7.5C12.387,7.5 12.5,7.613 12.5,7.75L12.5,13.25C12.5,13.387 12.387,13.5 12.25,13.5L3.75,13.5C3.613,13.5 3.5,13.387 3.5,13.25L3.5,7.75C3.5,7.613 3.613,7.5 3.75,7.5Z" style="fill:white;"/>
                        </g>
                    </g>
                    <g transform="matrix(3.01465,0,0,3.03843,123.461,17.1414)">
                        <path d="M7.429,1.525C7.809,1.492 8.191,1.492 8.571,1.525C8.607,1.528 8.679,1.561 8.708,1.671L8.997,2.776C9.144,3.336 9.547,3.743 9.994,3.965C10.168,4.051 10.335,4.148 10.495,4.255C10.912,4.533 11.465,4.678 12.025,4.525L13.127,4.222C13.237,4.192 13.302,4.238 13.322,4.268C13.541,4.578 13.732,4.909 13.895,5.257C13.909,5.288 13.917,5.367 13.836,5.447L13.021,6.253C12.61,6.659 12.459,7.21 12.491,7.709C12.503,7.903 12.503,8.097 12.491,8.291C12.459,8.79 12.61,9.341 13.021,9.747L13.836,10.553C13.916,10.633 13.909,10.712 13.895,10.743C13.733,11.089 13.542,11.42 13.322,11.733C13.302,11.762 13.236,11.807 13.127,11.778L12.024,11.475C11.465,11.322 10.912,11.467 10.495,11.745C10.335,11.852 10.168,11.949 9.995,12.035C9.546,12.257 9.144,12.663 8.997,13.224L8.708,14.329C8.679,14.439 8.607,14.472 8.571,14.475C8.191,14.508 7.809,14.508 7.429,14.475C7.393,14.472 7.321,14.438 7.292,14.329L7.003,13.224C6.856,12.664 6.453,12.257 6.006,12.035C5.833,11.949 5.666,11.852 5.505,11.745C5.088,11.467 4.535,11.322 3.975,11.475L2.873,11.778C2.763,11.808 2.698,11.762 2.678,11.732C2.458,11.42 2.267,11.089 2.105,10.743C2.091,10.712 2.083,10.633 2.164,10.553L2.979,9.747C3.39,9.341 3.541,8.79 3.509,8.291C3.497,8.097 3.497,7.903 3.509,7.709C3.541,7.21 3.39,6.659 2.979,6.253L2.164,5.447C2.084,5.367 2.091,5.288 2.105,5.257C2.266,4.911 2.458,4.579 2.678,4.267C2.698,4.238 2.764,4.192 2.873,4.222L3.976,4.525C4.535,4.678 5.088,4.533 5.505,4.255C5.665,4.148 5.832,4.051 6.005,3.965C6.454,3.743 6.856,3.337 7.003,2.776L7.292,1.671C7.321,1.561 7.393,1.528 7.429,1.525ZM8,0C7.764,0 7.53,0.01 7.299,0.03C6.556,0.095 6.009,0.645 5.841,1.291L5.551,2.397C5.534,2.463 5.473,2.555 5.34,2.621C5.109,2.735 4.886,2.864 4.672,3.007C4.549,3.089 4.439,3.097 4.372,3.078L3.27,2.776C2.626,2.599 1.878,2.796 1.45,3.406C1.18,3.79 0.944,4.197 0.746,4.623C0.431,5.298 0.635,6.045 1.109,6.514L1.924,7.32C1.974,7.368 2.022,7.467 2.012,7.614C1.996,7.871 1.996,8.129 2.012,8.386C2.022,8.533 1.974,8.632 1.924,8.68L1.109,9.486C0.635,9.955 0.431,10.702 0.746,11.377C0.946,11.805 1.182,12.212 1.45,12.595C1.878,13.204 2.626,13.401 3.27,13.225L4.373,12.922C4.439,12.903 4.549,12.911 4.672,12.993C4.885,13.136 5.108,13.265 5.34,13.379C5.473,13.445 5.534,13.537 5.552,13.603L5.841,14.709C6.01,15.355 6.556,15.905 7.299,15.969C7.765,16.01 8.235,16.01 8.701,15.969C9.444,15.905 9.991,15.355 10.159,14.709L10.449,13.603C10.466,13.537 10.527,13.445 10.66,13.379C10.891,13.265 11.114,13.136 11.328,12.993C11.451,12.911 11.561,12.903 11.628,12.922L12.73,13.224C13.374,13.401 14.122,13.204 14.55,12.594C14.818,12.212 15.055,11.805 15.254,11.377C15.569,10.702 15.365,9.955 14.89,9.486L14.076,8.68C14.026,8.632 13.978,8.533 13.988,8.386C14.004,8.129 14.004,7.871 13.988,7.614C13.978,7.467 14.027,7.368 14.076,7.32L14.89,6.514C15.365,6.045 15.569,5.298 15.254,4.623C15.056,4.197 14.82,3.79 14.55,3.405C14.122,2.796 13.374,2.599 12.73,2.775L11.627,3.078C11.561,3.097 11.451,3.089 11.328,3.007C11.114,2.864 10.891,2.735 10.66,2.621C10.527,2.555 10.466,2.463 10.448,2.397L10.16,1.29C9.99,0.645 9.444,0.095 8.701,0.031C8.468,0.011 8.234,0 8,-0ZM9.5,8C9.5,8.823 8.823,9.5 8,9.5C7.177,9.5 6.5,8.823 6.5,8C6.5,7.177 7.177,6.5 8,6.5C8.823,6.5 9.5,7.177 9.5,8ZM11,8C11,9.646 9.646,11 8,11C6.354,11 5,9.646 5,8C5,6.354 6.354,5 8,5C9.646,5 11,6.354 11,8Z" style="fill:white;"/>
                    </g>
                    <g transform="matrix(0.750002,0,0,0.750002,-59.6251,0)">
                        <rect x="440.9" y="0.287" width="110.284" height="110.284" style="fill:rgb(47,122,255);"/>
                    </g>
                    <g>
                        <g transform="matrix(2.79101,0,0,2.79101,289.683,17.7112)">
                            <path d="M1.75,1C0.79,1 -0,1.79 0,2.75L0,13.25C0,14.216 0.784,15 1.75,15L14.25,15C15.21,15 16,14.21 16,13.25L16,4.75C16,3.79 15.21,3 14.25,3L7.75,3C7.671,3 7.597,2.963 7.55,2.9L6.65,1.7C6.32,1.26 5.8,1 5.25,1L1.75,1Z" style="fill:white;"/>
                        </g>
                        <g transform="matrix(0.761665,0,0,0.620963,-65.9094,3.33579)">
                            <path d="M525.51,44.439C525.51,42.254 524.802,40.16 523.543,38.615C522.284,37.071 520.576,36.203 518.795,36.203C506.691,36.203 481.492,36.203 470.976,36.203C468.342,36.203 466.206,38.823 466.206,42.054C466.206,47.45 466.206,54.629 466.206,54.629L525.51,54.629L525.51,44.439Z" style="fill:rgb(255,51,0);"/>
                        </g>
                        <g transform="matrix(0.761665,0,0,0.656655,-65.9094,23.7529)">
                            <path d="M525.51,36.203L466.206,36.203L466.206,46.02C466.206,48.303 466.988,50.493 468.38,52.108C469.772,53.722 471.66,54.629 473.628,54.629C485.322,54.629 507.847,54.629 518.969,54.629C520.703,54.629 522.367,53.83 523.594,52.407C524.82,50.984 525.51,49.054 525.51,47.042L525.51,36.203Z" style="fill:rgb(0,185,90);"/>
                        </g>
                        <g transform="matrix(0.761665,0,0,0.573102,-65.9094,16.2884)">
                            <rect x="466.206" y="36.203" width="59.304" height="18.426" style="fill:rgb(251,188,4);"/>
                        </g>
                    </g>
                </g>
                <g transform="matrix(0.750002,0,0,0.750002,-4.48125,0.0502835)">
                    <rect x="440.9" y="0.287" width="110.284" height="110.284" style="fill:rgb(0,169,82);"/>
                </g>
                <g transform="matrix(3.55618,0,0,3.55618,338.41,11.3506)">
                    <path d="M1.5,2.75C1.5,2.613 1.613,2.5 1.75,2.5L10.25,2.5C10.387,2.5 10.5,2.613 10.5,2.75L10.5,8.25C10.5,8.387 10.387,8.5 10.25,8.5L6.75,8.5C6.551,8.5 6.36,8.579 6.22,8.72L3.5,11.44L3.5,9.25C3.5,8.839 3.161,8.5 2.75,8.5L1.75,8.5C1.613,8.5 1.5,8.387 1.5,8.25L1.5,2.75ZM1.75,1C0.79,1 -0,1.79 0,2.75L0,8.25C0,9.216 0.784,10 1.75,10L2,10L2,11.543C2,12.342 2.658,12.999 3.457,12.999C3.843,12.999 4.214,12.846 4.487,12.573L7.061,10L10.25,10C11.21,10 12,9.21 12,8.25L12,2.75C12,1.79 11.21,1 10.25,1L1.75,1ZM14.5,4.75C14.5,4.613 14.387,4.5 14.25,4.5L13.75,4.5C13.339,4.5 13,4.161 13,3.75C13,3.339 13.339,3 13.75,3L14.25,3C15.216,3 16,3.784 16,4.75L16,10.25C16,11.21 15.21,12 14.25,12L14,12L14,13.543C14,14.342 13.342,14.999 12.543,14.999C12.157,14.999 11.786,14.846 11.513,14.573L9.22,12.28C9.068,12.138 8.981,11.939 8.981,11.731C8.981,11.32 9.32,10.981 9.731,10.981C9.939,10.981 10.138,11.068 10.28,11.22L12.5,13.44L12.5,11.25C12.5,10.839 12.839,10.5 13.25,10.5L14.25,10.5C14.387,10.5 14.5,10.387 14.5,10.25L14.5,4.75Z" style="fill:white;"/>
                </g>
                <g>
                    <g transform="matrix(0.750002,0,0,0.757384,-87.7502,-0.954348)">
                        <path d="M618.032,29.023C618.032,28.282 617.425,27.681 616.676,27.681C610.287,27.681 583.207,27.681 576.549,27.681C576.156,27.681 575.779,27.836 575.501,28.111C575.222,28.386 575.066,28.76 575.066,29.15C575.066,34.151 575.066,50.481 575.066,55.477C575.066,55.866 575.222,56.239 575.5,56.514C575.777,56.789 576.154,56.943 576.546,56.943C583.353,56.943 611.554,56.943 617.087,56.943C617.338,56.943 617.578,56.844 617.755,56.669C617.932,56.494 618.032,56.256 618.032,56.008C618.032,51.734 618.032,34.056 618.032,29.023Z" style="fill:rgb(0,103,50);"/>
                    </g>
                    <g transform="matrix(-1.12605,-0.46153,0.423226,-1.0326,991.344,384.029)">
                        <path d="M590.545,56.913L597.343,72.72L583.746,72.72L590.545,56.913Z" style="fill:rgb(0,103,50);"/>
                    </g>
                </g>
            </g>
        </g>
    </g>
</svg>
